<mxfile host="app.diagrams.net" modified="2022-12-09T22:30:17.303Z" agent="5.0 (Macintosh; Intel Mac OS X 10_15_7) AppleWebKit/537.36 (KHTML, like Gecko) Chrome/108.0.0.0 Safari/537.36" etag="YWU8BuWAyxNKuUcjbuHi" version="20.6.2" type="github">
  <diagram id="prtHgNgQTEPvFCAcTncT" name="Page-1">
    <mxGraphModel dx="541" dy="294" grid="1" gridSize="10" guides="1" tooltips="1" connect="1" arrows="1" fold="1" page="1" pageScale="1" pageWidth="827" pageHeight="1169" math="0" shadow="0">
      <root>
        <mxCell id="0" />
        <mxCell id="1" parent="0" />
        <mxCell id="kfuMkHNKd0KxU2UGfjOB-3" value="Diagrama de Atividade para Agendamento de Sala" style="swimlane;childLayout=stackLayout;resizeParent=1;resizeParentMax=0;startSize=20;html=1;fillColor=none;" parent="1" vertex="1">
          <mxGeometry x="530" y="120" width="460" height="345" as="geometry" />
        </mxCell>
        <mxCell id="kfuMkHNKd0KxU2UGfjOB-4" value="Funcionário" style="swimlane;startSize=20;html=1;fillColor=none;" parent="kfuMkHNKd0KxU2UGfjOB-3" vertex="1">
          <mxGeometry y="20" width="260" height="325" as="geometry" />
        </mxCell>
        <mxCell id="kfuMkHNKd0KxU2UGfjOB-10" style="edgeStyle=orthogonalEdgeStyle;rounded=0;orthogonalLoop=1;jettySize=auto;html=1;" parent="kfuMkHNKd0KxU2UGfjOB-4" source="kfuMkHNKd0KxU2UGfjOB-8" target="egBjRX2ZHW3WnmiDF0K0-9" edge="1">
          <mxGeometry relative="1" as="geometry">
            <mxPoint x="70" y="90" as="targetPoint" />
            <Array as="points">
              <mxPoint x="60" y="80" />
              <mxPoint x="60" y="80" />
            </Array>
          </mxGeometry>
        </mxCell>
        <mxCell id="kfuMkHNKd0KxU2UGfjOB-8" value="" style="ellipse;whiteSpace=wrap;html=1;aspect=fixed;fillColor=#000000;" parent="kfuMkHNKd0KxU2UGfjOB-4" vertex="1">
          <mxGeometry x="52" y="25" width="15" height="15" as="geometry" />
        </mxCell>
        <mxCell id="kfuMkHNKd0KxU2UGfjOB-9" value="Reservar sala em determinado Horário" style="ellipse;whiteSpace=wrap;html=1;align=center;newEdgeStyle={&quot;edgeStyle&quot;:&quot;entityRelationEdgeStyle&quot;,&quot;startArrow&quot;:&quot;none&quot;,&quot;endArrow&quot;:&quot;none&quot;,&quot;segment&quot;:10,&quot;curved&quot;:1};treeFolding=1;treeMoving=1;fillColor=none;fontSize=9;" parent="kfuMkHNKd0KxU2UGfjOB-4" vertex="1">
          <mxGeometry x="110" y="25" width="110" height="40" as="geometry" />
        </mxCell>
        <mxCell id="kfuMkHNKd0KxU2UGfjOB-31" value="Alterar o Horário da Pesquisa" style="ellipse;whiteSpace=wrap;html=1;align=center;newEdgeStyle={&quot;edgeStyle&quot;:&quot;entityRelationEdgeStyle&quot;,&quot;startArrow&quot;:&quot;none&quot;,&quot;endArrow&quot;:&quot;none&quot;,&quot;segment&quot;:10,&quot;curved&quot;:1};treeFolding=1;treeMoving=1;fontSize=9;fillColor=none;" parent="kfuMkHNKd0KxU2UGfjOB-4" vertex="1">
          <mxGeometry x="159.88" y="100" width="100" height="33" as="geometry" />
        </mxCell>
        <mxCell id="egBjRX2ZHW3WnmiDF0K0-4" value="" style="edgeStyle=orthogonalEdgeStyle;rounded=0;orthogonalLoop=1;jettySize=auto;html=1;" edge="1" parent="kfuMkHNKd0KxU2UGfjOB-4" source="egBjRX2ZHW3WnmiDF0K0-1" target="egBjRX2ZHW3WnmiDF0K0-5">
          <mxGeometry relative="1" as="geometry">
            <mxPoint x="153" y="235" as="targetPoint" />
          </mxGeometry>
        </mxCell>
        <mxCell id="egBjRX2ZHW3WnmiDF0K0-24" style="edgeStyle=orthogonalEdgeStyle;rounded=0;orthogonalLoop=1;jettySize=auto;html=1;entryX=0.5;entryY=1;entryDx=0;entryDy=0;fontSize=7;" edge="1" parent="kfuMkHNKd0KxU2UGfjOB-4" source="egBjRX2ZHW3WnmiDF0K0-1" target="kfuMkHNKd0KxU2UGfjOB-31">
          <mxGeometry relative="1" as="geometry" />
        </mxCell>
        <mxCell id="egBjRX2ZHW3WnmiDF0K0-1" value="" style="html=1;whiteSpace=wrap;aspect=fixed;shape=isoRectangle;" vertex="1" parent="kfuMkHNKd0KxU2UGfjOB-4">
          <mxGeometry x="195.01" y="180" width="28.33" height="17" as="geometry" />
        </mxCell>
        <mxCell id="egBjRX2ZHW3WnmiDF0K0-5" value="&lt;span style=&quot;font-size: 9px;&quot;&gt;Desiste do Agendamento&lt;/span&gt;" style="ellipse;shape=doubleEllipse;whiteSpace=wrap;html=1;shadow=0;fillStyle=auto;fontSize=7;fillColor=#000000;fontColor=#FFFFFF;strokeColor=#CCCCCC;" vertex="1" parent="kfuMkHNKd0KxU2UGfjOB-4">
          <mxGeometry x="168.88" y="265" width="78.58" height="45" as="geometry" />
        </mxCell>
        <mxCell id="egBjRX2ZHW3WnmiDF0K0-14" style="edgeStyle=orthogonalEdgeStyle;rounded=0;orthogonalLoop=1;jettySize=auto;html=1;fontSize=7;" edge="1" parent="kfuMkHNKd0KxU2UGfjOB-4" source="egBjRX2ZHW3WnmiDF0K0-9" target="kfuMkHNKd0KxU2UGfjOB-9">
          <mxGeometry relative="1" as="geometry" />
        </mxCell>
        <mxCell id="egBjRX2ZHW3WnmiDF0K0-29" value="se não existe agendamento&lt;br&gt;" style="edgeLabel;html=1;align=center;verticalAlign=middle;resizable=0;points=[];fontSize=7;" vertex="1" connectable="0" parent="egBjRX2ZHW3WnmiDF0K0-14">
          <mxGeometry x="-0.526" y="2" relative="1" as="geometry">
            <mxPoint x="15" y="-5" as="offset" />
          </mxGeometry>
        </mxCell>
        <mxCell id="egBjRX2ZHW3WnmiDF0K0-26" style="edgeStyle=orthogonalEdgeStyle;rounded=0;orthogonalLoop=1;jettySize=auto;html=1;entryX=0.546;entryY=0.071;entryDx=0;entryDy=0;entryPerimeter=0;fontSize=7;" edge="1" parent="kfuMkHNKd0KxU2UGfjOB-4" source="egBjRX2ZHW3WnmiDF0K0-9" target="egBjRX2ZHW3WnmiDF0K0-25">
          <mxGeometry relative="1" as="geometry" />
        </mxCell>
        <mxCell id="egBjRX2ZHW3WnmiDF0K0-9" value="" style="html=1;whiteSpace=wrap;aspect=fixed;shape=isoRectangle;fontSize=7;" vertex="1" parent="kfuMkHNKd0KxU2UGfjOB-4">
          <mxGeometry x="48.66" y="86" width="21.67" height="13" as="geometry" />
        </mxCell>
        <mxCell id="egBjRX2ZHW3WnmiDF0K0-27" style="edgeStyle=orthogonalEdgeStyle;rounded=0;orthogonalLoop=1;jettySize=auto;html=1;entryX=0;entryY=0.5;entryDx=0;entryDy=0;fontSize=7;" edge="1" parent="kfuMkHNKd0KxU2UGfjOB-4" source="egBjRX2ZHW3WnmiDF0K0-25" target="egBjRX2ZHW3WnmiDF0K0-5">
          <mxGeometry relative="1" as="geometry">
            <Array as="points">
              <mxPoint x="60" y="287" />
            </Array>
          </mxGeometry>
        </mxCell>
        <mxCell id="egBjRX2ZHW3WnmiDF0K0-28" style="edgeStyle=orthogonalEdgeStyle;rounded=0;orthogonalLoop=1;jettySize=auto;html=1;entryX=0;entryY=0.5;entryDx=0;entryDy=0;fontSize=7;" edge="1" parent="kfuMkHNKd0KxU2UGfjOB-4" source="egBjRX2ZHW3WnmiDF0K0-25" target="kfuMkHNKd0KxU2UGfjOB-31">
          <mxGeometry relative="1" as="geometry" />
        </mxCell>
        <mxCell id="egBjRX2ZHW3WnmiDF0K0-25" value="" style="html=1;whiteSpace=wrap;aspect=fixed;shape=isoRectangle;fontSize=7;" vertex="1" parent="kfuMkHNKd0KxU2UGfjOB-4">
          <mxGeometry x="50.33" y="192" width="16.67" height="10" as="geometry" />
        </mxCell>
        <UserObject label="se existe agendamento" placeholders="1" id="egBjRX2ZHW3WnmiDF0K0-30">
          <mxCell style="text;html=1;strokeColor=none;fillColor=none;align=center;verticalAlign=middle;whiteSpace=wrap;overflow=hidden;fontSize=7;rotation=90;" vertex="1" parent="kfuMkHNKd0KxU2UGfjOB-4">
            <mxGeometry x="27" y="139" width="80" height="13" as="geometry" />
          </mxCell>
        </UserObject>
        <mxCell id="kfuMkHNKd0KxU2UGfjOB-5" value="Agenda" style="swimlane;startSize=20;html=1;fillColor=none;" parent="kfuMkHNKd0KxU2UGfjOB-3" vertex="1">
          <mxGeometry x="260" y="20" width="200" height="325" as="geometry" />
        </mxCell>
        <mxCell id="kfuMkHNKd0KxU2UGfjOB-14" style="edgeStyle=orthogonalEdgeStyle;rounded=0;orthogonalLoop=1;jettySize=auto;html=1;exitX=0.5;exitY=1;exitDx=0;exitDy=0;entryX=0.513;entryY=0.08;entryDx=0;entryDy=0;entryPerimeter=0;" parent="kfuMkHNKd0KxU2UGfjOB-5" source="kfuMkHNKd0KxU2UGfjOB-11" target="kfuMkHNKd0KxU2UGfjOB-15" edge="1">
          <mxGeometry relative="1" as="geometry">
            <mxPoint x="110" y="105" as="targetPoint" />
          </mxGeometry>
        </mxCell>
        <mxCell id="kfuMkHNKd0KxU2UGfjOB-11" value="&lt;font style=&quot;font-size: 9px;&quot;&gt;Checar Salas Disponíveis no horário&lt;/font&gt;" style="ellipse;whiteSpace=wrap;html=1;align=center;newEdgeStyle={&quot;edgeStyle&quot;:&quot;entityRelationEdgeStyle&quot;,&quot;startArrow&quot;:&quot;none&quot;,&quot;endArrow&quot;:&quot;none&quot;,&quot;segment&quot;:10,&quot;curved&quot;:1};treeFolding=1;treeMoving=1;fillColor=none;" parent="kfuMkHNKd0KxU2UGfjOB-5" vertex="1">
          <mxGeometry x="45" y="65" width="135" height="40" as="geometry" />
        </mxCell>
        <mxCell id="kfuMkHNKd0KxU2UGfjOB-15" value="" style="html=1;whiteSpace=wrap;aspect=fixed;shape=isoRectangle;fillColor=none;" parent="kfuMkHNKd0KxU2UGfjOB-5" vertex="1">
          <mxGeometry x="99.75" y="142" width="25" height="15" as="geometry" />
        </mxCell>
        <UserObject label="Se Existe Sala Disponível" placeholders="1" name="Variable" id="kfuMkHNKd0KxU2UGfjOB-18">
          <mxCell style="text;html=1;strokeColor=none;fillColor=none;align=center;verticalAlign=middle;whiteSpace=wrap;overflow=hidden;fontSize=7;rotation=90;" parent="kfuMkHNKd0KxU2UGfjOB-5" vertex="1">
            <mxGeometry x="73" y="197" width="91.5" height="15" as="geometry" />
          </mxCell>
        </UserObject>
        <mxCell id="kfuMkHNKd0KxU2UGfjOB-17" style="edgeStyle=orthogonalEdgeStyle;rounded=0;orthogonalLoop=1;jettySize=auto;html=1;" parent="kfuMkHNKd0KxU2UGfjOB-5" source="kfuMkHNKd0KxU2UGfjOB-15" target="kfuMkHNKd0KxU2UGfjOB-33" edge="1">
          <mxGeometry relative="1" as="geometry">
            <mxPoint x="112.5" y="264.9999999999999" as="targetPoint" />
          </mxGeometry>
        </mxCell>
        <UserObject label="Se Não Existe Sala Disponível" placeholders="1" name="Variable" id="kfuMkHNKd0KxU2UGfjOB-28">
          <mxCell style="text;html=1;strokeColor=none;fillColor=none;align=center;verticalAlign=middle;whiteSpace=wrap;overflow=hidden;fontSize=7;rotation=0;" parent="kfuMkHNKd0KxU2UGfjOB-5" vertex="1">
            <mxGeometry x="-3" y="135" width="113" height="15" as="geometry" />
          </mxCell>
        </UserObject>
        <mxCell id="kfuMkHNKd0KxU2UGfjOB-33" value="&lt;span style=&quot;font-size: 9px;&quot;&gt;Realiza Agendamento de uma Sala Disponível&amp;nbsp;&lt;/span&gt;" style="ellipse;shape=doubleEllipse;whiteSpace=wrap;html=1;shadow=0;fillStyle=auto;fontSize=7;fillColor=#000000;fontColor=#FFFFFF;strokeColor=#CCCCCC;" parent="kfuMkHNKd0KxU2UGfjOB-5" vertex="1">
          <mxGeometry x="49.5" y="259" width="125.5" height="60" as="geometry" />
        </mxCell>
        <mxCell id="egBjRX2ZHW3WnmiDF0K0-16" style="edgeStyle=orthogonalEdgeStyle;rounded=0;orthogonalLoop=1;jettySize=auto;html=1;fontSize=7;exitX=0.5;exitY=0;exitDx=0;exitDy=0;" edge="1" parent="kfuMkHNKd0KxU2UGfjOB-3" source="kfuMkHNKd0KxU2UGfjOB-31" target="kfuMkHNKd0KxU2UGfjOB-11">
          <mxGeometry relative="1" as="geometry">
            <Array as="points">
              <mxPoint x="210" y="105" />
            </Array>
          </mxGeometry>
        </mxCell>
        <mxCell id="egBjRX2ZHW3WnmiDF0K0-21" style="edgeStyle=orthogonalEdgeStyle;rounded=0;orthogonalLoop=1;jettySize=auto;html=1;entryX=0.5;entryY=0;entryDx=0;entryDy=0;fontSize=7;" edge="1" parent="kfuMkHNKd0KxU2UGfjOB-3" source="kfuMkHNKd0KxU2UGfjOB-9" target="kfuMkHNKd0KxU2UGfjOB-11">
          <mxGeometry relative="1" as="geometry" />
        </mxCell>
        <mxCell id="egBjRX2ZHW3WnmiDF0K0-23" style="edgeStyle=orthogonalEdgeStyle;rounded=0;orthogonalLoop=1;jettySize=auto;html=1;fontSize=7;" edge="1" parent="kfuMkHNKd0KxU2UGfjOB-3" source="kfuMkHNKd0KxU2UGfjOB-15" target="egBjRX2ZHW3WnmiDF0K0-1">
          <mxGeometry relative="1" as="geometry">
            <Array as="points">
              <mxPoint x="270" y="169" />
              <mxPoint x="270" y="209" />
            </Array>
          </mxGeometry>
        </mxCell>
      </root>
    </mxGraphModel>
  </diagram>
</mxfile>
